<svg version="1.1" xmlns="http://www.w3.org/2000/svg" viewBox="0 0 472 455" width="1416" height="1365">
  <!-- svg-source:excalidraw -->
  
  <defs>
    <style>
      @font-face {
        font-family: "Virgil";
        src: url("https://excalidraw.com/Virgil.woff2");
      }
      @font-face {
        font-family: "Cascadia";
        src: url("https://excalidraw.com/Cascadia.woff2");
      }
    </style>
  </defs>
  <g stroke-linecap="round" transform="translate(10 10) rotate(0 226 217.5)"><path d="M108.75 0 L343.25 0 L368.74 1.7 L380.21 3.82 L390.83 6.8 L400.6 10.62 L409.52 15.29 L417.59 20.82 L424.81 27.19 L431.18 34.41 L436.71 42.48 L441.38 51.4 L445.2 61.17 L448.18 71.79 L451.58 95.58 L451.58 339.42 L448.18 363.21 L445.2 373.83 L441.38 383.6 L436.71 392.52 L431.18 400.59 L424.81 407.81 L417.59 414.18 L409.52 419.71 L400.6 424.38 L390.83 428.2 L380.21 431.18 L356.42 434.58 L95.58 434.58 L71.79 431.18 L61.17 428.2 L51.4 424.38 L42.48 419.71 L34.41 414.18 L27.19 407.81 L20.82 400.59 L15.29 392.52 L10.62 383.6 L6.8 373.83 L3.82 363.21 L0.42 339.42 L0 108.75 L0.42 95.58 L3.82 71.79 L6.8 61.17 L10.62 51.4 L15.29 42.48 L20.82 34.41 L27.19 27.19 L34.41 20.82 L42.48 15.29 L51.4 10.62 L61.17 6.8 L71.79 3.82 L83.26 1.7 L108.75 0" stroke="none" stroke-width="0" fill="#f0ead2"></path><path d="M108.75 0 M108.75 0 C192.44 0, 276.13 0, 343.25 0 M108.75 0 C188.44 0, 268.13 0, 343.25 0 M343.25 0 C415.75 0, 452 36.25, 452 108.75 M343.25 0 C415.75 0, 452 36.25, 452 108.75 M452 108.75 C452 153.19, 452 197.62, 452 326.25 M452 108.75 C452 173.91, 452 239.06, 452 326.25 M452 326.25 C452 398.75, 415.75 435, 343.25 435 M452 326.25 C452 398.75, 415.75 435, 343.25 435 M343.25 435 C270.92 435, 198.59 435, 108.75 435 M343.25 435 C283.84 435, 224.42 435, 108.75 435 M108.75 435 C36.25 435, 0 398.75, 0 326.25 M108.75 435 C36.25 435, 0 398.75, 0 326.25 M0 326.25 C0 280.74, 0 235.24, 0 108.75 M0 326.25 C0 256.94, 0 187.62, 0 108.75 M0 108.75 C0 36.25, 36.25 0, 108.75 0 M0 108.75 C0 36.25, 36.25 0, 108.75 0" stroke="#000" stroke-width="4" fill="none"></path></g><g stroke-linecap="round" transform="translate(57.549957275390625 39.70008087158203) rotate(0 42.40000915527344 39.59998321533203)"><path d="M19.8 0 L69.64 0.31 L77.07 2.78 L79.85 4.95 L83.56 11.14 L84.8 19.8 L84.49 64.04 L83.56 68.06 L79.85 74.25 L73.66 77.96 L65 79.2 L15.16 78.89 L7.73 76.42 L4.95 74.25 L2.78 71.47 L0.31 64.04 L0.31 15.16 L2.78 7.73 L4.95 4.95 L11.14 1.24 L19.8 0" stroke="none" stroke-width="0" fill="#fff"></path><path d="M19.8 0 M19.8 0 C34.84 0, 49.88 0, 65 0 M19.8 0 C36.98 0, 54.16 0, 65 0 M65 0 C78.2 0, 84.8 6.6, 84.8 19.8 M65 0 C78.2 0, 84.8 6.6, 84.8 19.8 M84.8 19.8 C84.8 33.09, 84.8 46.37, 84.8 59.4 M84.8 19.8 C84.8 30.02, 84.8 40.24, 84.8 59.4 M84.8 59.4 C84.8 72.6, 78.2 79.2, 65 79.2 M84.8 59.4 C84.8 72.6, 78.2 79.2, 65 79.2 M65 79.2 C52.65 79.2, 40.3 79.2, 19.8 79.2 M65 79.2 C47.87 79.2, 30.74 79.2, 19.8 79.2 M19.8 79.2 C6.6 79.2, 0 72.6, 0 59.4 M19.8 79.2 C6.6 79.2, 0 72.6, 0 59.4 M0 59.4 C0 51.32, 0 43.23, 0 19.8 M0 59.4 C0 44.28, 0 29.15, 0 19.8 M0 19.8 C0 6.6, 6.6 0, 19.8 0 M0 19.8 C0 6.6, 6.6 0, 19.8 0" stroke="#000" stroke-width="4" fill="none"></path></g><g stroke-linecap="round" transform="translate(57.149932861328125 124.90006256103516) rotate(0 42.40000915527344 39.59998321533203)"><path d="M19.8 0 L69.64 0.31 L77.07 2.78 L79.85 4.95 L83.56 11.14 L84.8 19.8 L84.49 64.04 L83.56 68.06 L79.85 74.25 L73.66 77.96 L65 79.2 L15.16 78.89 L7.73 76.42 L4.95 74.25 L2.78 71.47 L0.31 64.04 L0.31 15.16 L2.78 7.73 L4.95 4.95 L11.14 1.24 L19.8 0" stroke="none" stroke-width="0" fill="#fff"></path><path d="M19.8 0 M19.8 0 C34.2 0, 48.6 0, 65 0 M19.8 0 C30.23 0, 40.67 0, 65 0 M65 0 C78.2 0, 84.8 6.6, 84.8 19.8 M65 0 C78.2 0, 84.8 6.6, 84.8 19.8 M84.8 19.8 C84.8 29.29, 84.8 38.77, 84.8 59.4 M84.8 19.8 C84.8 35.6, 84.8 51.4, 84.8 59.4 M84.8 59.4 C84.8 72.6, 78.2 79.2, 65 79.2 M84.8 59.4 C84.8 72.6, 78.2 79.2, 65 79.2 M65 79.2 C50.13 79.2, 35.26 79.2, 19.8 79.2 M65 79.2 C48.86 79.2, 32.73 79.2, 19.8 79.2 M19.8 79.2 C6.6 79.2, 0 72.6, 0 59.4 M19.8 79.2 C6.6 79.2, 0 72.6, 0 59.4 M0 59.4 C0 48.35, 0 37.3, 0 19.8 M0 59.4 C0 49.62, 0 39.85, 0 19.8 M0 19.8 C0 6.6, 6.6 0, 19.8 0 M0 19.8 C0 6.6, 6.6 0, 19.8 0" stroke="#000" stroke-width="4" fill="none"></path></g><g stroke-linecap="round" transform="translate(57.549957275390625 210.10004425048828) rotate(0 42.40000915527344 39.59998321533203)"><path d="M19.8 0 L69.64 0.31 L77.07 2.78 L79.85 4.95 L83.56 11.14 L84.8 19.8 L84.49 64.04 L83.56 68.06 L79.85 74.25 L73.66 77.96 L65 79.2 L15.16 78.89 L7.73 76.42 L4.95 74.25 L2.78 71.47 L0.31 64.04 L0.31 15.16 L2.78 7.73 L4.95 4.95 L11.14 1.24 L19.8 0" stroke="none" stroke-width="0" fill="#fff"></path><path d="M19.8 0 M19.8 0 C36.58 0, 53.36 0, 65 0 M19.8 0 C37.18 0, 54.56 0, 65 0 M65 0 C78.2 0, 84.8 6.6, 84.8 19.8 M65 0 C78.2 0, 84.8 6.6, 84.8 19.8 M84.8 19.8 C84.8 33.36, 84.8 46.93, 84.8 59.4 M84.8 19.8 C84.8 33.96, 84.8 48.13, 84.8 59.4 M84.8 59.4 C84.8 72.6, 78.2 79.2, 65 79.2 M84.8 59.4 C84.8 72.6, 78.2 79.2, 65 79.2 M65 79.2 C47.56 79.2, 30.12 79.2, 19.8 79.2 M65 79.2 C53.59 79.2, 42.17 79.2, 19.8 79.2 M19.8 79.2 C6.6 79.2, 0 72.6, 0 59.4 M19.8 79.2 C6.6 79.2, 0 72.6, 0 59.4 M0 59.4 C0 49.98, 0 40.55, 0 19.8 M0 59.4 C0 49.34, 0 39.27, 0 19.8 M0 19.8 C0 6.6, 6.6 0, 19.8 0 M0 19.8 C0 6.6, 6.6 0, 19.8 0" stroke="#000" stroke-width="4" fill="none"></path></g><g stroke-linecap="round" transform="translate(148.3499755859375 40.900108337402344) rotate(0 42.40000915527344 39.59998321533203)"><path d="M19.8 0 L69.64 0.31 L77.07 2.78 L79.85 4.95 L83.56 11.14 L84.8 19.8 L84.49 64.04 L83.56 68.06 L79.85 74.25 L73.66 77.96 L65 79.2 L15.16 78.89 L7.73 76.42 L4.95 74.25 L2.78 71.47 L0.31 64.04 L0.31 15.16 L2.78 7.73 L4.95 4.95 L11.14 1.24 L19.8 0" stroke="none" stroke-width="0" fill="#fff"></path><path d="M19.8 0 M19.8 0 C29.71 0, 39.61 0, 65 0 M19.8 0 C33.35 0, 46.91 0, 65 0 M65 0 C78.2 0, 84.8 6.6, 84.8 19.8 M65 0 C78.2 0, 84.8 6.6, 84.8 19.8 M84.8 19.8 C84.8 30.95, 84.8 42.11, 84.8 59.4 M84.8 19.8 C84.8 34.84, 84.8 49.87, 84.8 59.4 M84.8 59.4 C84.8 72.6, 78.2 79.2, 65 79.2 M84.8 59.4 C84.8 72.6, 78.2 79.2, 65 79.2 M65 79.2 C54.85 79.2, 44.7 79.2, 19.8 79.2 M65 79.2 C51.34 79.2, 37.67 79.2, 19.8 79.2 M19.8 79.2 C6.6 79.2, 0 72.6, 0 59.4 M19.8 79.2 C6.6 79.2, 0 72.6, 0 59.4 M0 59.4 C0 46.38, 0 33.36, 0 19.8 M0 59.4 C0 47.5, 0 35.61, 0 19.8 M0 19.8 C0 6.6, 6.6 0, 19.8 0 M0 19.8 C0 6.6, 6.6 0, 19.8 0" stroke="#000" stroke-width="4" fill="none"></path></g><g stroke-linecap="round" transform="translate(147.949951171875 126.10009002685547) rotate(0 42.40000915527344 39.59998321533203)"><path d="M19.8 0 L69.64 0.31 L77.07 2.78 L79.85 4.95 L83.56 11.14 L84.8 19.8 L84.49 64.04 L83.56 68.06 L79.85 74.25 L73.66 77.96 L65 79.2 L15.16 78.89 L7.73 76.42 L4.95 74.25 L2.78 71.47 L0.31 64.04 L0.31 15.16 L2.78 7.73 L4.95 4.95 L11.14 1.24 L19.8 0" stroke="none" stroke-width="0" fill="#fff"></path><path d="M19.8 0 M19.8 0 C30.02 0, 40.23 0, 65 0 M19.8 0 C31.21 0, 42.62 0, 65 0 M65 0 C78.2 0, 84.8 6.6, 84.8 19.8 M65 0 C78.2 0, 84.8 6.6, 84.8 19.8 M84.8 19.8 C84.8 32.09, 84.8 44.38, 84.8 59.4 M84.8 19.8 C84.8 31.38, 84.8 42.95, 84.8 59.4 M84.8 59.4 C84.8 72.6, 78.2 79.2, 65 79.2 M84.8 59.4 C84.8 72.6, 78.2 79.2, 65 79.2 M65 79.2 C51.92 79.2, 38.83 79.2, 19.8 79.2 M65 79.2 C50.38 79.2, 35.75 79.2, 19.8 79.2 M19.8 79.2 C6.6 79.2, 0 72.6, 0 59.4 M19.8 79.2 C6.6 79.2, 0 72.6, 0 59.4 M0 59.4 C0 46.85, 0 34.29, 0 19.8 M0 59.4 C0 50.02, 0 40.64, 0 19.8 M0 19.8 C0 6.6, 6.6 0, 19.8 0 M0 19.8 C0 6.6, 6.6 0, 19.8 0" stroke="#000" stroke-width="4" fill="none"></path></g><g stroke-linecap="round" transform="translate(148.3499755859375 211.3000717163086) rotate(0 42.40000915527344 39.59998321533203)"><path d="M19.8 0 L69.64 0.31 L77.07 2.78 L79.85 4.95 L83.56 11.14 L84.8 19.8 L84.49 64.04 L83.56 68.06 L79.85 74.25 L73.66 77.96 L65 79.2 L15.16 78.89 L7.73 76.42 L4.95 74.25 L2.78 71.47 L0.31 64.04 L0.31 15.16 L2.78 7.73 L4.95 4.95 L11.14 1.24 L19.8 0" stroke="none" stroke-width="0" fill="#fff"></path><path d="M19.8 0 M19.8 0 C36.31 0, 52.82 0, 65 0 M19.8 0 C33.5 0, 47.19 0, 65 0 M65 0 C78.2 0, 84.8 6.6, 84.8 19.8 M65 0 C78.2 0, 84.8 6.6, 84.8 19.8 M84.8 19.8 C84.8 34.78, 84.8 49.76, 84.8 59.4 M84.8 19.8 C84.8 32.83, 84.8 45.87, 84.8 59.4 M84.8 59.4 C84.8 72.6, 78.2 79.2, 65 79.2 M84.8 59.4 C84.8 72.6, 78.2 79.2, 65 79.2 M65 79.2 C47.77 79.2, 30.53 79.2, 19.8 79.2 M65 79.2 C49.88 79.2, 34.77 79.2, 19.8 79.2 M19.8 79.2 C6.6 79.2, 0 72.6, 0 59.4 M19.8 79.2 C6.6 79.2, 0 72.6, 0 59.4 M0 59.4 C0 47.68, 0 35.96, 0 19.8 M0 59.4 C0 45.36, 0 31.33, 0 19.8 M0 19.8 C0 6.6, 6.6 0, 19.8 0 M0 19.8 C0 6.6, 6.6 0, 19.8 0" stroke="#000" stroke-width="4" fill="none"></path></g><g stroke-linecap="round" transform="translate(239.14996337890625 41.30005645751953) rotate(0 42.40000915527344 39.59998321533203)"><path d="M19.8 0 L69.64 0.31 L77.07 2.78 L79.85 4.95 L83.56 11.14 L84.8 19.8 L84.49 64.04 L83.56 68.06 L79.85 74.25 L73.66 77.96 L65 79.2 L15.16 78.89 L7.73 76.42 L4.95 74.25 L2.78 71.47 L0.31 64.04 L0.31 15.16 L2.78 7.73 L4.95 4.95 L11.14 1.24 L19.8 0" stroke="none" stroke-width="0" fill="#fff"></path><path d="M19.8 0 M19.8 0 C32.87 0, 45.94 0, 65 0 M19.8 0 C31.06 0, 42.32 0, 65 0 M65 0 C78.2 0, 84.8 6.6, 84.8 19.8 M65 0 C78.2 0, 84.8 6.6, 84.8 19.8 M84.8 19.8 C84.8 34.58, 84.8 49.36, 84.8 59.4 M84.8 19.8 C84.8 29.57, 84.8 39.33, 84.8 59.4 M84.8 59.4 C84.8 72.6, 78.2 79.2, 65 79.2 M84.8 59.4 C84.8 72.6, 78.2 79.2, 65 79.2 M65 79.2 C47.77 79.2, 30.55 79.2, 19.8 79.2 M65 79.2 C47.1 79.2, 29.21 79.2, 19.8 79.2 M19.8 79.2 C6.6 79.2, 0 72.6, 0 59.4 M19.8 79.2 C6.6 79.2, 0 72.6, 0 59.4 M0 59.4 C0 45.68, 0 31.97, 0 19.8 M0 59.4 C0 49.38, 0 39.35, 0 19.8 M0 19.8 C0 6.6, 6.6 0, 19.8 0 M0 19.8 C0 6.6, 6.6 0, 19.8 0" stroke="#000" stroke-width="4" fill="none"></path></g><g stroke-linecap="round" transform="translate(238.74993896484375 126.50003814697266) rotate(0 42.40000915527344 39.59998321533203)"><path d="M19.8 0 L69.64 0.31 L77.07 2.78 L79.85 4.95 L83.56 11.14 L84.8 19.8 L84.49 64.04 L83.56 68.06 L79.85 74.25 L73.66 77.96 L65 79.2 L15.16 78.89 L7.73 76.42 L4.95 74.25 L2.78 71.47 L0.31 64.04 L0.31 15.16 L2.78 7.73 L4.95 4.95 L11.14 1.24 L19.8 0" stroke="none" stroke-width="0" fill="#fff"></path><path d="M19.8 0 M19.8 0 C31.19 0, 42.57 0, 65 0 M19.8 0 C36.42 0, 53.04 0, 65 0 M65 0 C78.2 0, 84.8 6.6, 84.8 19.8 M65 0 C78.2 0, 84.8 6.6, 84.8 19.8 M84.8 19.8 C84.8 34.85, 84.8 49.91, 84.8 59.4 M84.8 19.8 C84.8 32.51, 84.8 45.22, 84.8 59.4 M84.8 59.4 C84.8 72.6, 78.2 79.2, 65 79.2 M84.8 59.4 C84.8 72.6, 78.2 79.2, 65 79.2 M65 79.2 C52.56 79.2, 40.11 79.2, 19.8 79.2 M65 79.2 C50.89 79.2, 36.78 79.2, 19.8 79.2 M19.8 79.2 C6.6 79.2, 0 72.6, 0 59.4 M19.8 79.2 C6.6 79.2, 0 72.6, 0 59.4 M0 59.4 C0 43.95, 0 28.51, 0 19.8 M0 59.4 C0 46.44, 0 33.49, 0 19.8 M0 19.8 C0 6.6, 6.6 0, 19.8 0 M0 19.8 C0 6.6, 6.6 0, 19.8 0" stroke="#000" stroke-width="4" fill="none"></path></g><g stroke-linecap="round" transform="translate(239.14996337890625 211.70001983642578) rotate(0 42.40000915527344 39.59998321533203)"><path d="M19.8 0 L69.64 0.31 L77.07 2.78 L79.85 4.95 L83.56 11.14 L84.8 19.8 L84.49 64.04 L83.56 68.06 L79.85 74.25 L73.66 77.96 L65 79.2 L15.16 78.89 L7.73 76.42 L4.95 74.25 L2.78 71.47 L0.31 64.04 L0.31 15.16 L2.78 7.73 L4.95 4.95 L11.14 1.24 L19.8 0" stroke="none" stroke-width="0" fill="#fff"></path><path d="M19.8 0 M19.8 0 C37.86 0, 55.91 0, 65 0 M19.8 0 C33.92 0, 48.05 0, 65 0 M65 0 C78.2 0, 84.8 6.6, 84.8 19.8 M65 0 C78.2 0, 84.8 6.6, 84.8 19.8 M84.8 19.8 C84.8 31.12, 84.8 42.44, 84.8 59.4 M84.8 19.8 C84.8 32.46, 84.8 45.12, 84.8 59.4 M84.8 59.4 C84.8 72.6, 78.2 79.2, 65 79.2 M84.8 59.4 C84.8 72.6, 78.2 79.2, 65 79.2 M65 79.2 C52.51 79.2, 40.02 79.2, 19.8 79.2 M65 79.2 C50.29 79.2, 35.58 79.2, 19.8 79.2 M19.8 79.2 C6.6 79.2, 0 72.6, 0 59.4 M19.8 79.2 C6.6 79.2, 0 72.6, 0 59.4 M0 59.4 C0 49.77, 0 40.15, 0 19.8 M0 59.4 C0 44.2, 0 28.99, 0 19.8 M0 19.8 C0 6.6, 6.6 0, 19.8 0 M0 19.8 C0 6.6, 6.6 0, 19.8 0" stroke="#000" stroke-width="4" fill="none"></path></g><g stroke-linecap="round" transform="translate(329.949951171875 41.70008087158203) rotate(0 42.40000915527344 39.59998321533203)"><path d="M19.8 0 L69.64 0.31 L77.07 2.78 L79.85 4.95 L83.56 11.14 L84.8 19.8 L84.49 64.04 L83.56 68.06 L79.85 74.25 L73.66 77.96 L65 79.2 L15.16 78.89 L7.73 76.42 L4.95 74.25 L2.78 71.47 L0.31 64.04 L0.31 15.16 L2.78 7.73 L4.95 4.95 L11.14 1.24 L19.8 0" stroke="none" stroke-width="0" fill="#fff"></path><path d="M19.8 0 M19.8 0 C30.06 0, 40.31 0, 65 0 M19.8 0 C32.91 0, 46.02 0, 65 0 M65 0 C78.2 0, 84.8 6.6, 84.8 19.8 M65 0 C78.2 0, 84.8 6.6, 84.8 19.8 M84.8 19.8 C84.8 32.78, 84.8 45.76, 84.8 59.4 M84.8 19.8 C84.8 31.8, 84.8 43.8, 84.8 59.4 M84.8 59.4 C84.8 72.6, 78.2 79.2, 65 79.2 M84.8 59.4 C84.8 72.6, 78.2 79.2, 65 79.2 M65 79.2 C55.81 79.2, 46.61 79.2, 19.8 79.2 M65 79.2 C48.16 79.2, 31.33 79.2, 19.8 79.2 M19.8 79.2 C6.6 79.2, 0 72.6, 0 59.4 M19.8 79.2 C6.6 79.2, 0 72.6, 0 59.4 M0 59.4 C0 45.37, 0 31.34, 0 19.8 M0 59.4 C0 47.81, 0 36.23, 0 19.8 M0 19.8 C0 6.6, 6.6 0, 19.8 0 M0 19.8 C0 6.6, 6.6 0, 19.8 0" stroke="#000" stroke-width="4" fill="none"></path></g><g stroke-linecap="round" transform="translate(329.5499267578125 126.90006256103516) rotate(0 42.40000915527344 39.59998321533203)"><path d="M19.8 0 L69.64 0.31 L77.07 2.78 L79.85 4.95 L83.56 11.14 L84.8 19.8 L84.49 64.04 L83.56 68.06 L79.85 74.25 L73.66 77.96 L65 79.2 L15.16 78.89 L7.73 76.42 L4.95 74.25 L2.78 71.47 L0.31 64.04 L0.31 15.16 L2.78 7.73 L4.95 4.95 L11.14 1.24 L19.8 0" stroke="none" stroke-width="0" fill="#fff"></path><path d="M19.8 0 M19.8 0 C34.41 0, 49.02 0, 65 0 M19.8 0 C33.84 0, 47.88 0, 65 0 M65 0 C78.2 0, 84.8 6.6, 84.8 19.8 M65 0 C78.2 0, 84.8 6.6, 84.8 19.8 M84.8 19.8 C84.8 35.21, 84.8 50.63, 84.8 59.4 M84.8 19.8 C84.8 30.42, 84.8 41.05, 84.8 59.4 M84.8 59.4 C84.8 72.6, 78.2 79.2, 65 79.2 M84.8 59.4 C84.8 72.6, 78.2 79.2, 65 79.2 M65 79.2 C51.65 79.2, 38.3 79.2, 19.8 79.2 M65 79.2 C48.63 79.2, 32.26 79.2, 19.8 79.2 M19.8 79.2 C6.6 79.2, 0 72.6, 0 59.4 M19.8 79.2 C6.6 79.2, 0 72.6, 0 59.4 M0 59.4 C0 48.81, 0 38.21, 0 19.8 M0 59.4 C0 48.26, 0 37.13, 0 19.8 M0 19.8 C0 6.6, 6.6 0, 19.8 0 M0 19.8 C0 6.6, 6.6 0, 19.8 0" stroke="#000" stroke-width="4" fill="none"></path></g><g stroke-linecap="round" transform="translate(329.949951171875 212.10004425048828) rotate(0 42.40000915527344 39.59998321533203)"><path d="M19.8 0 L69.64 0.31 L77.07 2.78 L79.85 4.95 L83.56 11.14 L84.8 19.8 L84.49 64.04 L83.56 68.06 L79.85 74.25 L73.66 77.96 L65 79.2 L15.16 78.89 L7.73 76.42 L4.95 74.25 L2.78 71.47 L0.31 64.04 L0.31 15.16 L2.78 7.73 L4.95 4.95 L11.14 1.24 L19.8 0" stroke="none" stroke-width="0" fill="#fff"></path><path d="M19.8 0 M19.8 0 C35.47 0, 51.14 0, 65 0 M19.8 0 C30.02 0, 40.25 0, 65 0 M65 0 C78.2 0, 84.8 6.6, 84.8 19.8 M65 0 C78.2 0, 84.8 6.6, 84.8 19.8 M84.8 19.8 C84.8 34.85, 84.8 49.91, 84.8 59.4 M84.8 19.8 C84.8 32.91, 84.8 46.01, 84.8 59.4 M84.8 59.4 C84.8 72.6, 78.2 79.2, 65 79.2 M84.8 59.4 C84.8 72.6, 78.2 79.2, 65 79.2 M65 79.2 C49.05 79.2, 33.11 79.2, 19.8 79.2 M65 79.2 C51.74 79.2, 38.47 79.2, 19.8 79.2 M19.8 79.2 C6.6 79.2, 0 72.6, 0 59.4 M19.8 79.2 C6.6 79.2, 0 72.6, 0 59.4 M0 59.4 C0 48.17, 0 36.94, 0 19.8 M0 59.4 C0 46.64, 0 33.87, 0 19.8 M0 19.8 C0 6.6, 6.6 0, 19.8 0 M0 19.8 C0 6.6, 6.6 0, 19.8 0" stroke="#000" stroke-width="4" fill="none"></path></g><g stroke-linecap="round" transform="translate(53.350006103515625 309.29996490478516) rotate(0 182.5 51.99999237060547)"><path d="M26 0 L339 0 L350.38 1.62 L354.84 3.66 L358.5 6.5 L361.34 10.16 L363.38 14.62 L364.59 19.91 L365 78 L363.38 89.37 L361.34 93.84 L358.5 97.5 L354.84 100.34 L350.38 102.37 L339 104 L26 104 L14.62 102.37 L10.16 100.34 L6.5 97.5 L3.66 93.84 L1.62 89.37 L0.41 84.09 L0.41 19.91 L1.62 14.62 L3.66 10.16 L6.5 6.5 L10.16 3.66 L14.62 1.62 L26 0" stroke="none" stroke-width="0" fill="#72b01d"></path><path d="M26 0 M26 0 C140.44 0, 254.88 0, 339 0 M26 0 C147.55 0, 269.1 0, 339 0 M339 0 C356.33 0, 365 8.67, 365 26 M339 0 C356.33 0, 365 8.67, 365 26 M365 26 C365 41.77, 365 57.54, 365 78 M365 26 C365 39.48, 365 52.97, 365 78 M365 78 C365 95.33, 356.33 104, 339 104 M365 78 C365 95.33, 356.33 104, 339 104 M339 104 C252.21 104, 165.42 104, 26 104 M339 104 C244.45 104, 149.89 104, 26 104 M26 104 C8.67 104, 0 95.33, 0 78 M26 104 C8.67 104, 0 95.33, 0 78 M0 78 C0 57.43, 0 36.85, 0 26 M0 78 C0 66.12, 0 54.24, 0 26 M0 26 C0 8.67, 8.67 0, 26 0 M0 26 C0 8.67, 8.67 0, 26 0" stroke="#000" stroke-width="4" fill="none"></path></g><g transform="translate(58.350006103515625 340.2999572753906) rotate(0 177.5 21)"><text x="177.5" y="33" font-family="Helvetica, Segoe UI Emoji" font-size="36px" fill="#fff" text-anchor="middle" style="white-space: pre;" direction="ltr">Fire!</text></g><g transform="translate(247.1500244140625 126.48161035034781) rotate(0 38.5 37.159203980099534)"><text x="0" y="60.31840796019907" font-family="Helvetica, Segoe UI Emoji" font-size="55.85372958966156px" fill="#fff" text-anchor="start" style="white-space: pre;" direction="ltr">🎯</text></g><g transform="translate(153.95001220703125 126.88163476441031) rotate(0 39 37)"><text x="0" y="60" font-family="Helvetica, Segoe UI Emoji" font-size="55.85372958966156px" fill="#fff" text-anchor="start" style="white-space: pre;" direction="ltr">🥕</text></g><g transform="translate(65.54998779296875 126.48164086792593) rotate(0 39 37)"><text x="0" y="60" font-family="Helvetica, Segoe UI Emoji" font-size="55.85372958966156px" fill="#fff" text-anchor="start" style="white-space: pre;" direction="ltr">🥕</text></g><g transform="translate(336.74993896484375 129.68165307495718) rotate(0 39 37)"><text x="0" y="60" font-family="Helvetica, Segoe UI Emoji" font-size="55.85372958966156px" fill="#fff" text-anchor="start" style="white-space: pre;" direction="ltr">💥</text></g><g transform="translate(243.5499267578125 42.08164697144156) rotate(0 39 37)"><text x="0" y="60" font-family="Helvetica, Segoe UI Emoji" font-size="55.85372958966156px" fill="#fff" text-anchor="start" style="white-space: pre;" direction="ltr">⚫</text></g><g transform="translate(62.34991455078125 209.68160729859) rotate(0 39 37)"><text x="0" y="60" font-family="Helvetica, Segoe UI Emoji" font-size="55.85372958966156px" fill="#fff" text-anchor="start" style="white-space: pre;" direction="ltr">⚫</text></g></svg>